<svg width="16" height="19" viewBox="0 0 16 19" fill="none" xmlns="http://www.w3.org/2000/svg">
<path d="M5.00004 15.0265C5.19867 15.0278 5.39314 14.9608 5.55866 14.8338C5.72418 14.7069 5.85325 14.5259 5.92941 14.3139C6.00558 14.1018 6.02539 13.8684 5.98632 13.6433C5.94725 13.4182 5.85107 13.2116 5.71004 13.0499L2.41004 9.24709L5.71004 5.44423C5.87387 5.22311 5.95948 4.93868 5.94975 4.64777C5.94003 4.35686 5.8357 4.08091 5.65761 3.87505C5.47951 3.66919 5.24077 3.5486 4.9891 3.53736C4.73742 3.52612 4.49135 3.62508 4.30004 3.81444L0.300043 8.43797C0.113792 8.65454 0.00925016 8.9475 0.00925016 9.25287C0.00925016 9.55823 0.113792 9.85119 0.300043 10.0678L4.30004 14.6913C4.4863 14.9048 4.7377 15.0252 5.00004 15.0265Z" fill="white"/>
<path d="M1 10.4029H11C11.2652 10.4029 11.5196 10.2812 11.7071 10.0644C11.8946 9.84762 12 9.55362 12 9.24706C12 8.9405 11.8946 8.6465 11.7071 8.42973C11.5196 8.21296 11.2652 8.09118 11 8.09118H1C0.734784 8.09118 0.480429 8.21296 0.292892 8.42973C0.105356 8.6465 0 8.9405 0 9.24706C0 9.55362 0.105356 9.84762 0.292892 10.0644C0.480429 10.2812 0.734784 10.4029 1 10.4029ZM15 18.4941C15.2652 18.4941 15.5196 18.3723 15.7071 18.1556C15.8946 17.9388 16 17.6448 16 17.3382V1.15588C16 0.849323 15.8946 0.55532 15.7071 0.33855C15.5196 0.12178 15.2652 0 15 0C14.7348 0 14.4804 0.12178 14.2929 0.33855C14.1054 0.55532 14 0.849323 14 1.15588V17.3382C14 17.6448 14.1054 17.9388 14.2929 18.1556C14.4804 18.3723 14.7348 18.4941 15 18.4941Z" fill="white"/>
</svg>
