<svg width="16" height="19" viewBox="0 0 16 19" fill="none" xmlns="http://www.w3.org/2000/svg">
<path d="M11 15.103C10.8013 15.1043 10.6069 15.0372 10.4413 14.9103C10.2758 14.7834 10.1468 14.6024 10.0706 14.3904C9.99442 14.1783 9.97461 13.9449 10.0137 13.7198C10.0527 13.4946 10.1489 13.2881 10.29 13.1264L13.59 9.32356L10.29 5.52071C10.1261 5.29959 10.0405 5.01515 10.0502 4.72425C10.06 4.43334 10.1643 4.15738 10.3424 3.95153C10.5205 3.74567 10.7592 3.62507 11.0109 3.61384C11.2626 3.6026 11.5087 3.70155 11.7 3.89092L15.7 8.51445C15.8862 8.73101 15.9907 9.02397 15.9907 9.32934C15.9907 9.63471 15.8862 9.92767 15.7 10.1442L11.7 14.7678C11.5137 14.9813 11.2623 15.1017 11 15.103Z" fill="white"/>
<path d="M15 10.4794H5C4.73478 10.4794 4.48043 10.3576 4.29289 10.1409C4.10536 9.9241 4 9.63009 4 9.32354C4 9.01698 4.10536 8.72297 4.29289 8.5062C4.48043 8.28943 4.73478 8.16765 5 8.16765H15C15.2652 8.16765 15.5196 8.28943 15.7071 8.5062C15.8946 8.72297 16 9.01698 16 9.32354C16 9.63009 15.8946 9.9241 15.7071 10.1409C15.5196 10.3576 15.2652 10.4794 15 10.4794ZM1 18.5706C0.734784 18.5706 0.48043 18.4488 0.292893 18.232C0.105357 18.0153 0 17.7213 0 17.4147V1.23236C0 0.9258 0.105357 0.631797 0.292893 0.415027C0.48043 0.198257 0.734784 0.0764771 1 0.0764771C1.26522 0.0764771 1.51957 0.198257 1.70711 0.415027C1.89464 0.631797 2 0.9258 2 1.23236V17.4147C2 17.7213 1.89464 18.0153 1.70711 18.232C1.51957 18.4488 1.26522 18.5706 1 18.5706Z" fill="white"/>
</svg>
