<svg width="57" height="57" viewBox="0 0 57 57" fill="none" xmlns="http://www.w3.org/2000/svg">
<circle cx="28.5" cy="28.5" r="28.5" fill="#027DBA" fill-opacity="0.1"/>
<path d="M22.5 40.8333C21.9042 40.8333 21.3941 40.6049 20.9698 40.1479C20.5455 39.691 20.3334 39.1417 20.3334 38.5V17.5C20.3334 16.8583 20.5455 16.309 20.9698 15.8521C21.3941 15.3951 21.9042 15.1667 22.5 15.1667H33.3334C33.9292 15.1667 34.4393 15.3951 34.8636 15.8521C35.2879 16.309 35.5 16.8583 35.5 17.5V22.1667H33.3334V21H22.5V35H33.3334V33.8333H35.5V38.5C35.5 39.1417 35.2879 39.691 34.8636 40.1479C34.4393 40.6049 33.9292 40.8333 33.3334 40.8333H22.5ZM22.5 37.3333V38.5H33.3334V37.3333H22.5ZM32.1959 32.6667L27.5917 27.7083L29.1084 26.075L32.1959 29.4L38.3167 22.8083L39.8334 24.4417L32.1959 32.6667ZM22.5 18.6667H33.3334V17.5H22.5V18.6667Z" fill="#2463EB"/>
</svg>
