<svg width="24" height="25" viewBox="0 0 24 25" fill="none" xmlns="http://www.w3.org/2000/svg">
<path d="M9.24995 22.2941L8.84995 19.0941C8.63328 19.0108 8.42912 18.9108 8.23745 18.7941C8.04578 18.6775 7.85828 18.5525 7.67495 18.4191L4.69995 19.6691L1.94995 14.9191L4.52495 12.9691C4.50828 12.8525 4.49995 12.74 4.49995 12.6316V11.9566C4.49995 11.8483 4.50828 11.7358 4.52495 11.6191L1.94995 9.66913L4.69995 4.91913L7.67495 6.16913C7.85828 6.0358 8.04995 5.9108 8.24995 5.79413C8.44995 5.67746 8.64995 5.57746 8.84995 5.49413L9.24995 2.29413H14.75L15.15 5.49413C15.3666 5.57746 15.5708 5.67746 15.7625 5.79413C15.9541 5.9108 16.1416 6.0358 16.325 6.16913L19.3 4.91913L22.05 9.66913L19.475 11.6191C19.4916 11.7358 19.5 11.8483 19.5 11.9566V12.6316C19.5 12.74 19.4833 12.8525 19.45 12.9691L22.025 14.9191L19.275 19.6691L16.325 18.4191C16.1416 18.5525 15.95 18.6775 15.75 18.7941C15.55 18.9108 15.35 19.0108 15.15 19.0941L14.75 22.2941H9.24995ZM11 20.2941H12.975L13.325 17.6441C13.8416 17.5108 14.3208 17.315 14.7625 17.0566C15.2041 16.7983 15.6083 16.4858 15.975 16.1191L18.45 17.1441L19.425 15.4441L17.275 13.8191C17.3583 13.5858 17.4166 13.34 17.45 13.0816C17.4833 12.8233 17.5 12.5608 17.5 12.2941C17.5 12.0275 17.4833 11.765 17.45 11.5066C17.4166 11.2483 17.3583 11.0025 17.275 10.7691L19.425 9.14413L18.45 7.44413L15.975 8.49413C15.6083 8.1108 15.2041 7.78996 14.7625 7.53163C14.3208 7.2733 13.8416 7.07746 13.325 6.94413L13 4.29413H11.025L10.675 6.94413C10.1583 7.07746 9.67912 7.2733 9.23745 7.53163C8.79578 7.78996 8.39162 8.10246 8.02495 8.46913L5.54995 7.44413L4.57495 9.14413L6.72495 10.7441C6.64162 10.9941 6.58328 11.2441 6.54995 11.4941C6.51662 11.7441 6.49995 12.0108 6.49995 12.2941C6.49995 12.5608 6.51662 12.8191 6.54995 13.0691C6.58328 13.3191 6.64162 13.5691 6.72495 13.8191L4.57495 15.4441L5.54995 17.1441L8.02495 16.0941C8.39162 16.4775 8.79578 16.7983 9.23745 17.0566C9.67912 17.315 10.1583 17.5108 10.675 17.6441L11 20.2941ZM12.05 15.7941C13.0166 15.7941 13.8416 15.4525 14.525 14.7691C15.2083 14.0858 15.55 13.2608 15.55 12.2941C15.55 11.3275 15.2083 10.5025 14.525 9.81913C13.8416 9.1358 13.0166 8.79413 12.05 8.79413C11.0666 8.79413 10.2375 9.1358 9.56245 9.81913C8.88745 10.5025 8.54995 11.3275 8.54995 12.2941C8.54995 13.2608 8.88745 14.0858 9.56245 14.7691C10.2375 15.4525 11.0666 15.7941 12.05 15.7941Z" fill="white"/>
</svg>
